<svg width="33" height="32" viewBox="0 0 33 32" fill="none" xmlns="http://www.w3.org/2000/svg">
<path d="M30.5 7V13C30.5 13.2652 30.3947 13.5196 30.2072 13.7071C30.0196 13.8946 29.7653 14 29.5 14H23.5C23.2348 14 22.9805 13.8946 22.7929 13.7071C22.6054 13.5196 22.5 13.2652 22.5 13C22.5 12.7348 22.6054 12.4804 22.7929 12.2929C22.9805 12.1054 23.2348 12 23.5 12H26.925L23.6013 8.955L23.57 8.925C22.1801 7.53561 20.4116 6.58657 18.4855 6.19643C16.5593 5.80629 14.5609 5.99235 12.7399 6.73137C10.9189 7.47039 9.356 8.7296 8.24647 10.3517C7.13694 11.9738 6.52997 13.8869 6.50138 15.8519C6.47279 17.817 7.02385 19.7469 8.08572 21.4006C9.14758 23.0543 10.6732 24.3584 12.4719 25.1501C14.2707 25.9418 16.2628 26.1859 18.1995 25.852C20.1362 25.518 21.9316 24.6209 23.3613 23.2725C23.5541 23.0902 23.8114 22.9919 24.0766 22.9993C24.3419 23.0066 24.5933 23.1191 24.7757 23.3119C24.958 23.5046 25.0563 23.762 25.0489 24.0272C25.0415 24.2925 24.9291 24.5439 24.7363 24.7262C22.5131 26.8347 19.564 28.0069 16.5001 28H16.3351C14.3697 27.9731 12.4411 27.4638 10.7187 26.517C8.99625 25.5701 7.53278 24.2147 6.45687 22.5698C5.38097 20.9249 4.72558 19.0409 4.5483 17.0834C4.37103 15.1259 4.67729 13.1549 5.44019 11.3434C6.20308 9.53203 7.39924 7.93573 8.92354 6.69486C10.4478 5.454 12.2536 4.60654 14.1821 4.22699C16.1106 3.84744 18.1029 3.9474 19.9837 4.51811C21.8645 5.08881 23.5764 6.11277 24.9688 7.5L28.5 10.725V7C28.5 6.73478 28.6054 6.48043 28.7929 6.29289C28.9805 6.10535 29.2348 6 29.5 6C29.7653 6 30.0196 6.10535 30.2072 6.29289C30.3947 6.48043 30.5 6.73478 30.5 7Z" fill="#808080"/>
</svg>
