<svg width="44" height="44" viewBox="0 0 44 44" fill="none" xmlns="http://www.w3.org/2000/svg">
<circle cx="22" cy="22" r="22" fill="#48CF76"/>
<path d="M23.5 31.5C23.5 31.7967 23.412 32.0867 23.2472 32.3334C23.0824 32.58 22.8481 32.7723 22.574 32.8858C22.2999 32.9994 21.9983 33.0291 21.7073 32.9712C21.4164 32.9133 21.1491 32.7704 20.9393 32.5607C20.7295 32.3509 20.5867 32.0836 20.5288 31.7926C20.4709 31.5017 20.5006 31.2001 20.6142 30.926C20.7277 30.6519 20.92 30.4176 21.1666 30.2528C21.4133 30.088 21.7033 30 22 30C22.3978 30 22.7793 30.158 23.0606 30.4393C23.3419 30.7206 23.5 31.1022 23.5 31.5ZM35.635 16.875C31.7906 13.7217 26.9721 11.9984 22 11.9984C17.0278 11.9984 12.2094 13.7217 8.36499 16.875C8.26346 16.9584 8.17935 17.061 8.11746 17.1769C8.05557 17.2928 8.01712 17.4197 8.00429 17.5505C7.99146 17.6812 8.00452 17.8132 8.04271 17.9389C8.0809 18.0646 8.14347 18.1816 8.22686 18.2831C8.31025 18.3847 8.41282 18.4688 8.52871 18.5307C8.64461 18.5925 8.77156 18.631 8.90232 18.6438C9.16639 18.6697 9.42994 18.5897 9.63499 18.4213C13.1215 15.5621 17.4911 13.9996 22 13.9996C26.5089 13.9996 30.8785 15.5621 34.365 18.4213C34.57 18.5897 34.8336 18.6697 35.0977 18.6438C35.3617 18.6179 35.6047 18.4882 35.7731 18.2831C35.9415 18.0781 36.0216 17.8145 35.9957 17.5505C35.9698 17.2864 35.84 17.0434 35.635 16.875ZM31.625 21.3463C28.8867 19.1783 25.4964 17.9987 22.0037 17.9987C18.5111 17.9987 15.1208 19.1783 12.3825 21.3463C12.1746 21.511 12.0407 21.7516 12.0103 22.0151C11.9798 22.2786 12.0552 22.5434 12.22 22.7513C12.3848 22.9591 12.6253 23.093 12.8888 23.1235C13.1523 23.154 13.4171 23.0785 13.625 22.9138C16.0098 21.026 18.9622 19.999 22.0037 19.999C25.0453 19.999 27.9977 21.026 30.3825 22.9138C30.4854 22.9953 30.6034 23.0559 30.7297 23.0919C30.856 23.1279 30.9882 23.1386 31.1186 23.1235C31.2491 23.1084 31.3753 23.0678 31.4901 23.0039C31.6049 22.94 31.7059 22.8542 31.7875 22.7513C31.8691 22.6483 31.9296 22.5304 31.9656 22.404C32.0016 22.2777 32.0124 22.1456 31.9973 22.0151C31.9822 21.8846 31.9415 21.7584 31.8777 21.6436C31.8138 21.5289 31.7279 21.4278 31.625 21.3463ZM27.5925 25.8163C25.9682 24.6357 24.0117 23.9999 22.0037 23.9999C19.9957 23.9999 18.0393 24.6357 16.415 25.8163C16.2005 25.9724 16.0568 26.2074 16.0156 26.4694C15.9743 26.7315 16.0388 26.9993 16.195 27.2138C16.3511 27.4282 16.5861 27.5719 16.8482 27.6132C17.1103 27.6544 17.378 27.5899 17.5925 27.4338C18.8744 26.5015 20.4187 25.9993 22.0037 25.9993C23.5888 25.9993 25.1331 26.5015 26.415 27.4338C26.5212 27.5111 26.6416 27.5667 26.7693 27.5975C26.897 27.6283 27.0295 27.6336 27.1593 27.6132C27.2891 27.5928 27.4135 27.547 27.5256 27.4784C27.6377 27.4099 27.7352 27.32 27.8125 27.2138C27.8898 27.1075 27.9454 26.9871 27.9762 26.8594C28.007 26.7317 28.0123 26.5992 27.9919 26.4694C27.9715 26.3397 27.9257 26.2152 27.8572 26.1031C27.7886 25.991 27.6987 25.8936 27.5925 25.8163Z" fill="white"/>
</svg>
