<svg width="32" height="32" viewBox="0 0 32 32" fill="none" xmlns="http://www.w3.org/2000/svg">
<path d="M17.5 25.5C17.5 25.7967 17.412 26.0867 17.2472 26.3334C17.0824 26.58 16.8481 26.7723 16.574 26.8858C16.2999 26.9994 15.9983 27.0291 15.7073 26.9712C15.4164 26.9133 15.1491 26.7704 14.9393 26.5607C14.7295 26.3509 14.5867 26.0836 14.5288 25.7926C14.4709 25.5017 14.5006 25.2001 14.6142 24.926C14.7277 24.6519 14.92 24.4176 15.1666 24.2528C15.4133 24.088 15.7033 24 16 24C16.3978 24 16.7793 24.158 17.0606 24.4393C17.3419 24.7206 17.5 25.1022 17.5 25.5ZM29.635 10.875C25.7906 7.72173 20.9721 5.99838 16 5.99838C11.0278 5.99838 6.20936 7.72173 2.36499 10.875C2.26346 10.9584 2.17935 11.061 2.11746 11.1769C2.05557 11.2928 2.01712 11.4197 2.00429 11.5505C1.99146 11.6812 2.00452 11.8132 2.04271 11.9389C2.0809 12.0646 2.14347 12.1816 2.22686 12.2831C2.31025 12.3847 2.41282 12.4688 2.52871 12.5307C2.64461 12.5925 2.77156 12.631 2.90232 12.6438C3.16639 12.6697 3.42994 12.5897 3.63499 12.4213C7.1215 9.56214 11.4911 7.99961 16 7.99961C20.5089 7.99961 24.8785 9.56214 28.365 12.4213C28.57 12.5897 28.8336 12.6697 29.0977 12.6438C29.3617 12.6179 29.6047 12.4882 29.7731 12.2831C29.9415 12.0781 30.0216 11.8145 29.9957 11.5505C29.9698 11.2864 29.84 11.0434 29.635 10.875ZM25.625 15.3463C22.8867 13.1783 19.4964 11.9987 16.0037 11.9987C12.5111 11.9987 9.12082 13.1783 6.38249 15.3463C6.17462 15.511 6.04072 15.7516 6.01025 16.0151C5.97978 16.2786 6.05522 16.5434 6.21999 16.7513C6.38475 16.9591 6.62534 17.093 6.88883 17.1235C7.15232 17.154 7.41712 17.0785 7.62499 16.9138C10.0098 15.026 12.9622 13.999 16.0037 13.999C19.0453 13.999 21.9977 15.026 24.3825 16.9138C24.4854 16.9953 24.6034 17.0559 24.7297 17.0919C24.856 17.1279 24.9882 17.1386 25.1186 17.1235C25.2491 17.1084 25.3753 17.0678 25.4901 17.0039C25.6049 16.94 25.7059 16.8542 25.7875 16.7513C25.8691 16.6483 25.9296 16.5304 25.9656 16.404C26.0016 16.2777 26.0124 16.1456 25.9973 16.0151C25.9822 15.8846 25.9415 15.7584 25.8777 15.6436C25.8138 15.5289 25.7279 15.4278 25.625 15.3463ZM21.5925 19.8163C19.9682 18.6357 18.0117 17.9999 16.0037 17.9999C13.9957 17.9999 12.0393 18.6357 10.415 19.8163C10.2005 19.9724 10.0568 20.2074 10.0156 20.4694C9.9743 20.7315 10.0388 20.9993 10.195 21.2138C10.3511 21.4282 10.5861 21.5719 10.8482 21.6132C11.1103 21.6544 11.378 21.5899 11.5925 21.4338C12.8744 20.5015 14.4187 19.9993 16.0037 19.9993C17.5888 19.9993 19.1331 20.5015 20.415 21.4338C20.5212 21.5111 20.6416 21.5667 20.7693 21.5975C20.897 21.6283 21.0295 21.6336 21.1593 21.6132C21.2891 21.5928 21.4135 21.547 21.5256 21.4784C21.6377 21.4099 21.7352 21.32 21.8125 21.2138C21.8898 21.1075 21.9454 20.9871 21.9762 20.8594C22.007 20.7317 22.0123 20.5992 21.9919 20.4694C21.9715 20.3397 21.9257 20.2152 21.8572 20.1031C21.7886 19.991 21.6987 19.8936 21.5925 19.8163Z" fill="white"/>
</svg>
