<svg width="45" height="44" viewBox="0 0 45 44" fill="none" xmlns="http://www.w3.org/2000/svg">
<circle cx="22.5" cy="22" r="22" fill="#D7D7D7"/>
<path d="M33.24 32.3275C33.3301 32.4243 33.4002 32.5381 33.446 32.6623C33.4919 32.7864 33.5127 32.9184 33.5072 33.0506C33.5016 33.1828 33.4699 33.3126 33.4139 33.4325C33.3578 33.5524 33.2785 33.6599 33.1806 33.7489C33.0827 33.8379 32.968 33.9066 32.8434 33.951C32.7187 33.9953 32.5865 34.0145 32.4543 34.0074C32.3222 34.0003 32.1928 33.967 32.0736 33.9096C31.9544 33.8521 31.8478 33.7715 31.76 33.6725L25.26 26.5287C24.0845 26.0623 22.8102 25.9008 21.5555 26.059C20.3009 26.2172 19.1066 26.6901 18.0837 27.4337C17.9778 27.5138 17.8569 27.572 17.7283 27.6048C17.5996 27.6377 17.4657 27.6446 17.3343 27.6252C17.203 27.6057 17.0768 27.5603 16.9632 27.4915C16.8495 27.4228 16.7507 27.3321 16.6726 27.2248C16.5944 27.1174 16.5383 26.9956 16.5077 26.8664C16.4771 26.7372 16.4726 26.6031 16.4943 26.4721C16.5161 26.3411 16.5637 26.2158 16.6344 26.1034C16.7051 25.991 16.7975 25.8938 16.9062 25.8175C18.5293 24.6307 20.4893 23.9939 22.5 24C22.66 24 22.8187 24 22.9775 24.0125L19.6125 20.3112C17.6094 20.7507 15.7327 21.6407 14.125 22.9137C14.0219 22.9958 13.9036 23.0568 13.7768 23.093C13.6501 23.1292 13.5175 23.14 13.3865 23.1248C13.2556 23.1096 13.129 23.0686 13.014 23.0043C12.8989 22.94 12.7977 22.8536 12.7162 22.75C12.5514 22.5427 12.4755 22.2785 12.5053 22.0153C12.5351 21.7521 12.668 21.5115 12.875 21.3462C14.4249 20.1203 16.1944 19.2014 18.0887 18.6387L15.1712 15.425C13.3504 16.1645 11.6523 17.176 10.135 18.425C10.0332 18.5084 9.91599 18.5709 9.79005 18.609C9.66411 18.6471 9.53191 18.66 9.40098 18.647C9.27004 18.634 9.14296 18.5954 9.02697 18.5332C8.91098 18.4711 8.80836 18.3868 8.72497 18.285C8.64158 18.1832 8.57905 18.066 8.54096 17.9401C8.50287 17.8141 8.48995 17.6819 8.50295 17.551C8.5292 17.2866 8.65943 17.0434 8.86497 16.875C10.351 15.6551 11.994 14.6402 13.75 13.8575L11.76 11.6725C11.6698 11.5756 11.5998 11.4618 11.5539 11.3377C11.508 11.2136 11.4873 11.0816 11.4928 10.9494C11.4983 10.8172 11.53 10.6874 11.5861 10.5675C11.6421 10.4476 11.7214 10.3401 11.8194 10.2511C11.9173 10.1621 12.0319 10.0934 12.1566 10.049C12.2813 10.0046 12.4135 9.98545 12.5456 9.99256C12.6778 9.99967 12.8072 10.0329 12.9264 10.0904C13.0456 10.1479 13.1522 10.2285 13.24 10.3275L33.24 32.3275ZM22.5 30C22.2033 30 21.9133 30.088 21.6666 30.2528C21.4199 30.4176 21.2277 30.6519 21.1142 30.926C21.0006 31.2001 20.9709 31.5017 21.0288 31.7926C21.0867 32.0836 21.2295 32.3509 21.4393 32.5607C21.6491 32.7704 21.9164 32.9133 22.2073 32.9712C22.4983 33.029 22.7999 32.9993 23.074 32.8858C23.3481 32.7723 23.5824 32.58 23.7472 32.3333C23.912 32.0867 24 31.7967 24 31.5C24 31.1022 23.8419 30.7206 23.5606 30.4393C23.2793 30.158 22.8978 30 22.5 30ZM36.135 16.875C33.8674 15.0179 31.2446 13.6432 28.4272 12.835C25.6099 12.0269 22.6572 11.8023 19.75 12.175C19.6173 12.1885 19.4888 12.2284 19.3718 12.2924C19.2548 12.3563 19.1518 12.443 19.0688 12.5474C18.9859 12.6517 18.9246 12.7716 18.8886 12.9C18.8526 13.0283 18.8427 13.1626 18.8594 13.2949C18.876 13.4271 18.919 13.5547 18.9857 13.6701C19.0524 13.7856 19.1415 13.8865 19.2478 13.967C19.354 14.0475 19.4753 14.1059 19.6045 14.1388C19.7337 14.1718 19.8681 14.1785 20 14.1587C20.8291 14.0531 21.6641 14.0001 22.5 14C27.0084 14.0025 31.3771 15.5646 34.865 18.4212C35.07 18.5897 35.3336 18.6697 35.5976 18.6438C35.8617 18.6179 36.1047 18.4882 36.2731 18.2831C36.4415 18.0781 36.5216 17.8145 36.4957 17.5504C36.4698 17.2864 36.34 17.0434 36.135 16.875ZM30.875 22.9137C30.9779 22.9953 31.0959 23.0559 31.2222 23.0919C31.3485 23.1279 31.4807 23.1386 31.6111 23.1235C31.7416 23.1084 31.8678 23.0678 31.9826 23.0039C32.0973 22.94 32.1984 22.8542 32.28 22.7512C32.3616 22.6483 32.4221 22.5303 32.4581 22.404C32.4941 22.2777 32.5048 22.1456 32.4897 22.0151C32.4747 21.8846 32.434 21.7584 32.3701 21.6436C32.3063 21.5289 32.2204 21.4278 32.1175 21.3462C30.2262 19.8495 28.0123 18.8138 25.6512 18.3212C25.5213 18.2914 25.3867 18.2878 25.2553 18.3107C25.124 18.3336 24.9985 18.3825 24.8863 18.4546C24.7742 18.5267 24.6776 18.6206 24.6022 18.7306C24.5268 18.8405 24.4742 18.9645 24.4475 19.0951C24.4207 19.2258 24.4203 19.3604 24.4464 19.4912C24.4724 19.6219 24.5244 19.7462 24.5992 19.8566C24.6739 19.967 24.77 20.0613 24.8818 20.134C24.9936 20.2067 25.1187 20.2564 25.25 20.28C27.304 20.7093 29.2299 21.611 30.875 22.9137Z" fill="white"/>
</svg>
